<svg xmlns="http://www.w3.org/2000/svg" viewBox="0 0 64 64" width="64" height="64" fill="none" stroke="#5A3A2E" stroke-width="3.2" stroke-linecap="round" stroke-linejoin="round">

  <path d="M18 25 Q18 14 31 14 Q44 14 46 25"/>
  <path d="M20 20 Q23 10 31 14 Q38 8 45 18"/>
  <circle cx="26" cy="29" r="1.8" fill="currentColor" stroke="none"/>
  <circle cx="38" cy="29" r="1.8" fill="currentColor" stroke="none"/>
  <path d="M28 36 Q32 40 36 36"/>
  <path d="M18 25 Q14 29 18 34 M46 25 Q50 29 46 34"/>
  <path d="M20 49 Q24 41 32 41 Q40 41 44 49"/>
  <path d="M24 45 L32 52 L40 45"/>

</svg>
